HIERARCHY
ROOT Hips
{
	OFFSET 0.000000 103.266502 0.000000
	CHANNELS 6 Xposition Yposition Zposition Xrotation Yrotation Zrotation 
	JOINT Spine
	{
		OFFSET -0.002400 12.777504 0.315300
		CHANNELS 3 Xrotation Yrotation Zrotation
		JOINT Spine1
		{
			OFFSET -0.002067 5.816869 0.032633
			CHANNELS 3 Xrotation Yrotation Zrotation
			JOINT Spine1_split
			{
				OFFSET -0.002067 5.816869 0.032633
				CHANNELS 3 Xrotation Yrotation Zrotation
				JOINT Spine2
				{
					OFFSET -0.002067 5.816869 0.032633
					CHANNELS 3 Xrotation Yrotation Zrotation
					JOINT Neck
					{
						OFFSET -0.003700 21.199493 -0.826900
						CHANNELS 3 Xrotation Yrotation Zrotation
						JOINT Head
						{
							OFFSET 0.000000 20.442200 4.834800
							CHANNELS 3 Xrotation Yrotation Zrotation
							JOINT HeadTop_End
							{
								OFFSET 0.000000 34.668396 4.968400
								CHANNELS 3 Xrotation Yrotation Zrotation
								End Site
								{
									OFFSET 0.000000 0.000000 0.000000
								}
							}
						}
					}
					JOINT LeftShoulder
					{
						OFFSET 3.288150 8.794197 -1.372250
						CHANNELS 3 Xrotation Yrotation Zrotation
						JOINT LeftShoulder_split
						{
							OFFSET 3.288150 8.794197 -1.372250
							CHANNELS 3 Xrotation Yrotation Zrotation
							JOINT LeftArm
							{
								OFFSET 11.953299 -2.279007 -0.146200
								CHANNELS 3 Xrotation Yrotation Zrotation
								JOINT LeftForeArm
								{
									OFFSET 18.448900 0.000000 0.000000
									CHANNELS 3 Xrotation Yrotation Zrotation
									JOINT LeftHand
									{
										OFFSET 29.527798 0.000000 0.000000
										CHANNELS 3 Xrotation Yrotation Zrotation
										JOINT LeftHandThumb1
										{
											OFFSET 10.739754 -2.369614 9.225399
											CHANNELS 3 Xrotation Yrotation Zrotation
											JOINT LeftHandThumb2
											{
												OFFSET 4.926170 -2.844131 2.844125
												CHANNELS 3 Xrotation Yrotation Zrotation
												JOINT LeftHandThumb3
												{
													OFFSET 4.614891 -2.664413 2.664409
													CHANNELS 3 Xrotation Yrotation Zrotation
													JOINT LeftHandThumb4
													{
														OFFSET 4.432465 -2.559082 2.559083
														CHANNELS 3 Xrotation Yrotation Zrotation
														End Site
														{
															OFFSET 0.000000 0.000000 0.000000
														}
													}
												}
											}
										}
										JOINT LeftHandIndex1
										{
											OFFSET 26.467674 0.187653 6.405298
											CHANNELS 3 Xrotation Yrotation Zrotation
											JOINT LeftHandIndex2
											{
												OFFSET 8.792900 0.000000 0.000000
												CHANNELS 3 Xrotation Yrotation Zrotation
												JOINT LeftHandIndex3
												{
													OFFSET 10.075203 0.000000 0.000000
													CHANNELS 3 Xrotation Yrotation Zrotation
													End Site
													{
														OFFSET 0.000000 0.000000 0.000000
													}
												}
											}
										}
										JOINT LeftHandMiddle1
										{
											OFFSET 25.764404 0.000000 0.000000
											CHANNELS 3 Xrotation Yrotation Zrotation
											JOINT LeftHandMiddle2
											{
												OFFSET 9.393974 0.000000 0.000000
												CHANNELS 3 Xrotation Yrotation Zrotation
												JOINT LeftHandMiddle3
												{
													OFFSET 10.771950 0.000000 0.000000
													CHANNELS 3 Xrotation Yrotation Zrotation
													End Site
													{
														OFFSET 0.000000 0.000000 0.000000
													}
												}
											}
										}
										JOINT LeftHandRing1
										{
											OFFSET 24.660927 0.144547 -6.225808
											CHANNELS 3 Xrotation Yrotation Zrotation
											JOINT LeftHandRing2
											{
												OFFSET 9.393799 0.000000 0.000000
												CHANNELS 3 Xrotation Yrotation Zrotation
												JOINT LeftHandRing3
												{
													OFFSET 9.928497 0.000000 0.000000
													CHANNELS 3 Xrotation Yrotation Zrotation
													End Site
													{
														OFFSET 0.000000 0.000000 0.000000
													}
												}
											}
										}
										JOINT LeftHandPinky1
										{
											OFFSET 23.655350 0.125290 -12.815412
											CHANNELS 3 Xrotation Yrotation Zrotation
											JOINT LeftHandPinky2
											{
												OFFSET 8.425102 0.000000 0.000000
												CHANNELS 3 Xrotation Yrotation Zrotation
												JOINT LeftHandPinky3
												{
													OFFSET 8.147003 0.000000 0.000000
													CHANNELS 3 Xrotation Yrotation Zrotation
													End Site
													{
														OFFSET 0.000000 0.000000 0.000000
													}
												}
											}
										}
									}
								}
							}
						}
					}
					JOINT RightShoulder
					{
						OFFSET -3.249400 8.794197 -1.372250
						CHANNELS 3 Xrotation Yrotation Zrotation
						JOINT RightShoulder_split
						{
							OFFSET -3.249400 8.794197 -1.372250
							CHANNELS 3 Xrotation Yrotation Zrotation
							JOINT RightArm
							{
								OFFSET -11.953299 -2.279007 -0.146200
								CHANNELS 3 Xrotation Yrotation Zrotation
								JOINT RightForeArm
								{
									OFFSET -18.448900 0.000000 0.000000
									CHANNELS 3 Xrotation Yrotation Zrotation
									JOINT RightHand
									{
										OFFSET -29.527802 0.000000 0.000000
										CHANNELS 3 Xrotation Yrotation Zrotation
										JOINT RightHandThumb1
										{
											OFFSET -10.739754 -2.369614 9.225399
											CHANNELS 3 Xrotation Yrotation Zrotation
											JOINT RightHandThumb2
											{
												OFFSET -4.926170 -2.844131 2.844125
												CHANNELS 3 Xrotation Yrotation Zrotation
												JOINT RightHandThumb3
												{
													OFFSET -4.614891 -2.664413 2.664409
													CHANNELS 3 Xrotation Yrotation Zrotation
													JOINT RightHandThumb4
													{
														OFFSET -4.432465 -2.559082 2.559083
														CHANNELS 3 Xrotation Yrotation Zrotation
														End Site
														{
															OFFSET 0.000000 0.000000 0.000000
														}
													}
												}
											}
										}
										JOINT RightHandIndex1
										{
											OFFSET -26.467674 0.187653 6.405298
											CHANNELS 3 Xrotation Yrotation Zrotation
											JOINT RightHandIndex2
											{
												OFFSET -8.792900 0.000000 0.000000
												CHANNELS 3 Xrotation Yrotation Zrotation
												JOINT RightHandIndex3
												{
													OFFSET -10.075203 0.000000 0.000000
													CHANNELS 3 Xrotation Yrotation Zrotation
													End Site
													{
														OFFSET 0.000000 0.000000 0.000000
													}
												}
											}
										}
										JOINT RightHandMiddle1
										{
											OFFSET -25.764404 0.000000 0.000000
											CHANNELS 3 Xrotation Yrotation Zrotation
											JOINT RightHandMiddle2
											{
												OFFSET -9.393974 0.000000 0.000000
												CHANNELS 3 Xrotation Yrotation Zrotation
												JOINT RightHandMiddle3
												{
													OFFSET -10.771950 0.000000 0.000000
													CHANNELS 3 Xrotation Yrotation Zrotation
													End Site
													{
														OFFSET 0.000000 0.000000 0.000000
													}
												}
											}
										}
										JOINT RightHandRing1
										{
											OFFSET -24.660927 0.144547 -6.225808
											CHANNELS 3 Xrotation Yrotation Zrotation
											JOINT RightHandRing2
											{
												OFFSET -9.393799 0.000000 0.000000
												CHANNELS 3 Xrotation Yrotation Zrotation
												JOINT RightHandRing3
												{
													OFFSET -9.928497 0.000000 0.000000
													CHANNELS 3 Xrotation Yrotation Zrotation
													End Site
													{
														OFFSET 0.000000 0.000000 0.000000
													}
												}
											}
										}
										JOINT RightHandPinky1
										{
											OFFSET -23.655350 0.125290 -12.815412
											CHANNELS 3 Xrotation Yrotation Zrotation
											JOINT RightHandPinky2
											{
												OFFSET -8.425102 0.000000 0.000000
												CHANNELS 3 Xrotation Yrotation Zrotation
												JOINT RightHandPinky3
												{
													OFFSET -8.147003 0.000000 0.000000
													CHANNELS 3 Xrotation Yrotation Zrotation
													End Site
													{
														OFFSET 0.000000 0.000000 0.000000
													}
												}
											}
										}
									}
								}
							}
						}
					}
				}
			}
		}
	}
	JOINT LeftUpLeg
	{
		OFFSET 11.394100 -6.187798 -0.413800
		CHANNELS 3 Xrotation Yrotation Zrotation
		JOINT LeftLeg
		{
			OFFSET 0.430247 -32.302673 3.732800
			CHANNELS 3 Xrotation Yrotation Zrotation
			JOINT LeftFoot
			{
				OFFSET -0.430247 -48.264931 -6.423300
				CHANNELS 3 Xrotation Yrotation Zrotation
				JOINT LeftToeBase
				{
					OFFSET 4.230900 -16.068199 23.438400
					CHANNELS 3 Xrotation Yrotation Zrotation
					JOINT LeftToe_End
					{
						OFFSET 4.510700 0.695400 19.974600
						CHANNELS 3 Xrotation Yrotation Zrotation
						End Site
						{
							OFFSET 0.000000 0.000000 0.000000
						}
					}
				}
			}
		}
	}
	JOINT RightUpLeg
	{
		OFFSET -11.333700 -6.187798 -0.413800
		CHANNELS 3 Xrotation Yrotation Zrotation
		JOINT RightLeg
		{
			OFFSET -0.430392 -32.302628 3.733000
			CHANNELS 3 Xrotation Yrotation Zrotation
			JOINT RightFoot
			{
				OFFSET 0.430392 -48.264973 -6.423500
				CHANNELS 3 Xrotation Yrotation Zrotation
				JOINT RightToeBase
				{
					OFFSET -4.230900 -16.068199 23.438400
					CHANNELS 3 Xrotation Yrotation Zrotation
					JOINT RightToe_End
					{
						OFFSET -4.510700 0.695400 19.974600
						CHANNELS 3 Xrotation Yrotation Zrotation
						End Site
						{
							OFFSET 0.000000 0.000000 0.000000
						}
					}
				}
			}
		}
	}
}
MOTION
Frames: 4
Frame Time: 0.016667
0.034535 58.964714 3.984977 0.144845 0.136024 0.915354 10.430378 0.049875 -1.527881 -0.199260 0.213326 -0.355463 0.000000 0.000000 0.000000 -0.199581 0.248527 -0.300880 -1.001764 -1.284342 0.469464 -8.883500 -4.327062 -5.321560 -0.000000 -0.000000 0.000000 0.823521 -15.262025 -7.868749 0.000000 0.000000 0.000000 4.746711 -21.216441 -54.862248 -0.000022 -62.197499 -0.000029 31.062970 4.315252 41.770240 6.610614 1.798241 20.801491 2.716392 20.172583 -24.389168 -5.537279 29.849532 5.070892 -0.000001 0.000001 -0.000002 -0.235311 2.798402 -26.913107 0.396829 2.121266 -21.189304 -0.000002 -0.000000 -0.000001 1.299142 7.334319 -16.511084 0.329941 1.940081 -19.302244 0.000002 0.000002 -0.000003 1.797284 9.807930 -14.184133 0.205916 1.541073 -15.220194 -0.000005 -0.000001 0.000005 2.041308 10.867580 -13.918921 0.168519 1.396418 -13.761332 0.000000 0.000000 -0.000002 3.171093 -4.378724 8.782886 0.000000 0.000000 0.000000 -3.950252 37.253375 63.733649 0.000025 55.137952 -0.000026 43.537313 4.741024 -36.277945 -9.383514 -1.613340 -17.604714 3.557063 -24.337028 34.656851 -6.608460 -37.497322 -11.176184 -0.000002 0.000000 -0.000001 2.957832 1.012877 13.529999 0.472459 -2.045698 26.006732 0.000001 0.000001 -0.000002 0.105536 -3.664961 2.525402 0.584994 -2.261688 29.000440 0.000001 -0.000002 -0.000001 0.456444 -7.644282 4.306126 0.107467 -0.995712 12.318846 0.000001 -0.000001 0.000001 -11.162315 -10.227895 7.169814 0.029114 -0.520520 6.403066 -0.000001 -0.000001 0.000001 -101.045019 -9.224088 10.651966 82.109044 6.325772 0.196480 20.501665 -7.822055 -5.555906 -0.103114 0.000006 0.000000 0.000000 0.000001 0.000000 -102.271195 9.712123 -6.152307 82.194633 -6.305908 -1.871531 21.477596 1.049835 6.485234 -0.191630 0.000003 0.000001 0.000000 0.000001 -0.000000 
0.021950 59.010780 3.917327 -0.413774 0.118729 1.009541 10.212717 0.018353 -1.524223 0.247318 0.210143 -0.363243 0.000000 0.000000 0.000000 0.247050 0.242483 -0.311429 -0.863845 -1.257150 0.466748 -9.376979 -4.249638 -5.115972 0.000000 -0.000000 -0.000000 0.823223 -15.329303 -7.716558 0.000000 0.000000 0.000000 4.455910 -21.455909 -54.700868 0.000021 -61.301248 0.000035 31.122365 4.160826 41.654383 7.239339 2.016986 20.046610 2.611786 19.816544 -24.507496 -5.747154 29.560072 5.256796 -0.000001 -0.000001 0.000001 -0.214978 2.733548 -26.352485 0.412470 2.161184 -21.608038 0.000002 -0.000002 0.000001 1.260135 7.277756 -16.156657 0.350269 1.997102 -19.893273 -0.000000 0.000000 0.000002 1.754428 9.708181 -14.032350 0.229577 1.625515 -16.076483 -0.000001 -0.000001 0.000003 1.966971 10.727159 -13.936878 0.189194 1.478272 -14.585673 -0.000000 0.000001 -0.000002 3.130741 -4.188131 9.128579 0.000000 0.000000 0.000000 -3.788725 37.492435 62.416646 -0.000031 54.701445 0.000052 38.426098 6.434199 -35.338781 -9.061913 -1.287290 -15.921448 3.457723 -24.287019 33.909977 -6.735807 -36.930648 -11.141177 0.000001 0.000001 0.000000 2.928271 1.054582 13.023776 0.477734 -2.056467 26.153957 -0.000002 0.000001 -0.000004 0.100448 -3.662353 2.284180 0.616266 -2.317143 29.783282 0.000001 -0.000001 -0.000000 0.445623 -7.590676 4.231995 0.120845 -1.055138 13.066953 0.000003 -0.000001 0.000001 -11.183152 -10.282686 7.459222 0.034674 -0.567823 6.987822 -0.000003 -0.000001 0.000003 -100.380387 -9.083733 10.722678 82.020197 6.299250 0.196219 20.483148 -7.818359 -5.534288 -0.103114 0.000005 0.000000 -0.000000 -0.000000 0.000000 -101.689147 9.679391 -6.263190 82.152737 -6.169811 -1.870735 21.469279 1.027745 6.384956 -0.191630 0.000003 0.000001 -0.000000 0.000001 0.000000 
0.011488 59.064293 3.855171 -0.956765 0.111469 1.099569 10.002008 -0.008695 -1.518075 0.733888 0.214279 -0.373963 0.000000 0.000000 0.000000 0.733711 0.243699 -0.324692 -0.761074 -1.231934 0.475966 -10.032739 -4.165827 -4.919810 -0.000000 0.000000 0.000000 0.826521 -15.600729 -7.588853 0.000000 0.000000 0.000000 4.308926 -21.403938 -54.419771 0.000021 -61.023745 0.000023 30.015440 3.616481 41.129531 7.896444 2.237066 19.250656 2.502434 19.443508 -24.632778 -5.966433 29.255483 5.449300 -0.000002 0.000003 0.000002 -0.192905 2.666136 -25.764484 0.429198 2.202889 -22.047210 -0.000001 -0.000001 -0.000003 1.219817 7.218217 -15.785021 0.372180 2.056628 -20.513213 0.000003 -0.000001 0.000002 1.710064 9.602943 -13.874529 0.255659 1.713394 -16.971926 -0.000002 -0.000000 0.000003 1.888931 10.579972 -13.956017 0.212098 1.563652 -15.448795 -0.000001 -0.000000 0.000002 3.082109 -3.976042 9.440668 0.000000 0.000000 0.000000 -3.601776 37.650759 61.027406 -0.000006 54.399018 -0.000004 33.444264 7.545280 -34.227266 -8.709537 -0.935007 -14.170920 3.357926 -24.234215 33.129143 -6.869804 -36.336613 -11.102371 0.000001 -0.000002 0.000000 2.897933 1.099059 12.492944 0.483283 -2.067714 26.308367 0.000004 -0.000000 0.000001 0.095050 -3.659479 2.031253 0.649806 -2.374754 30.602676 -0.000001 -0.000004 0.000002 0.434443 -7.534141 4.154912 0.135680 -1.117131 13.849628 0.000000 -0.000000 -0.000003 -11.204847 -10.340614 7.762715 0.041018 -0.617380 7.601112 -0.000000 -0.000001 0.000003 -99.724621 -8.936526 10.785124 81.921671 6.264899 0.196013 20.463511 -7.813187 -5.501291 -0.103114 0.000005 0.000000 0.000000 -0.000000 -0.000000 -101.105706 9.652167 -6.379513 82.106558 -6.046756 -1.870056 21.452188 1.007418 6.294315 -0.191630 0.000003 0.000001 0.000000 0.000001 -0.000000 
0.005471 59.123764 3.790922 -1.484287 0.108685 1.187855 9.796488 -0.033537 -1.510595 1.248925 0.222378 -0.387395 0.000000 0.000000 0.000000 1.248840 0.248826 -0.340488 -0.681235 -1.208184 0.490104 -10.819937 -4.081876 -4.732363 0.000000 -0.000000 0.000000 0.832471 -15.979339 -7.489320 0.000000 0.000000 0.000000 4.238268 -21.173433 -54.038879 -0.000016 -61.236676 -0.000012 28.124113 2.742013 40.412341 8.575148 2.451597 18.424801 2.389372 19.058770 -24.763353 -6.191573 28.940078 5.645585 -0.000001 -0.000004 -0.000002 -0.169339 2.597101 -25.157455 0.446789 2.245833 -22.500636 0.000000 -0.000001 0.000001 1.178811 7.156430 -15.401465 0.395498 2.117845 -21.153226 0.000001 0.000000 -0.000000 1.664864 9.493848 -13.712412 0.284003 1.803600 -17.895371 -0.000001 -0.000001 0.000001 1.808334 10.428085 -13.976053 0.237089 1.651353 -16.339448 -0.000002 0.000001 0.000001 3.026188 -3.737178 9.731913 0.000000 0.000000 0.000000 -3.408167 37.697590 59.557569 0.000009 54.333363 -0.000009 28.528884 8.185347 -32.859869 -8.343277 -0.556702 -12.373146 3.258103 -24.179408 32.324365 -7.008210 -35.723624 -11.060080 0.000001 0.000001 0.000000 2.867313 1.145887 11.945003 0.489058 -2.079363 26.467772 0.000000 0.000002 -0.000003 0.089400 -3.656414 1.770182 0.685271 -2.433681 31.448042 0.000001 0.000003 -0.000001 0.423078 -7.475555 4.075717 0.151881 -1.180831 14.656900 -0.000003 0.000001 0.000001 -11.227097 -10.400869 8.075988 0.048103 -0.668452 8.234254 -0.000001 -0.000000 -0.000000 -99.076067 -8.781088 10.839703 81.808324 6.234871 0.195754 20.448299 -7.806825 -5.459007 -0.103114 0.000004 0.000000 -0.000000 -0.000000 0.000000 -100.521970 9.629600 -6.500415 82.044369 -5.927400 -1.869476 21.437729 0.988475 6.208617 -0.191630 0.000002 0.000001 -0.000000 -0.000000 0.000000 
